<?xml version="1.0" encoding="UTF-8" standalone="no"?><svg xmlns="http://www.w3.org/2000/svg" xmlns:xlink="http://www.w3.org/1999/xlink" contentStyleType="text/css" height="656px" preserveAspectRatio="none" style="width:618px;height:656px;background:#FFFFFF;" version="1.1" viewBox="0 0 618 656" width="618px" zoomAndPan="magnify"><defs><filter height="300%" id="fifiv2ebtaxpa" width="300%" x="-1" y="-1"><feGaussianBlur result="blurOut" stdDeviation="2.0"/><feColorMatrix in="blurOut" result="blurOut2" type="matrix" values="0 0 0 0 0 0 0 0 0 0 0 0 0 0 0 0 0 0 .4 0"/><feOffset dx="4.0" dy="4.0" in="blurOut2" result="blurOut3"/><feBlend in="SourceGraphic" in2="blurOut3" mode="normal"/></filter></defs><g><ellipse cx="380.31" cy="32" fill="#000000" filter="url(#fifiv2ebtaxpa)" rx="10" ry="10" style="stroke:none;stroke-width:1.0;"/><g id="State1"><rect fill="#FEFECE" filter="url(#fifiv2ebtaxpa)" height="50" rx="12.5" ry="12.5" style="stroke:#A80036;stroke-width:1.0;" width="60" x="425.31" y="7"/><line style="stroke:#A80036;stroke-width:1.0;" x1="425.31" x2="485.31" y1="33.7999" y2="33.7999"/><text fill="#000000" font-family="sans-serif" font-size="14" lengthAdjust="spacing" textLength="40" x="435.31" y="25.9999">State1</text></g><g id="State2"><rect fill="#FEFECE" filter="url(#fifiv2ebtaxpa)" height="50" rx="12.5" ry="12.5" style="stroke:#A80036;stroke-width:1.0;" width="60" x="252.31" y="134"/><line style="stroke:#A80036;stroke-width:1.0;" x1="252.31" x2="312.31" y1="160.7999" y2="160.7999"/><text fill="#000000" font-family="sans-serif" font-size="14" lengthAdjust="spacing" textLength="40" x="262.31" y="152.9999">State2</text></g><ellipse cx="291.31" cy="634" fill="none" filter="url(#fifiv2ebtaxpa)" rx="10" ry="10" style="stroke:#000000;stroke-width:1.0;"/><ellipse cx="291.81" cy="634.5" fill="#000000" rx="6" ry="6" style="stroke:none;stroke-width:1.0;"/><rect fill="#FEFECE" filter="url(#fifiv2ebtaxpa)" height="285.7999" rx="12.5" ry="12.5" style="stroke:#A80036;stroke-width:1.0;" width="284" x="140.31" y="261"/><rect fill="#FFFFFF" height="255" rx="12.5" ry="12.5" style="stroke:#FFFFFF;stroke-width:1.0;" width="280" x="142.31" y="289.7999"/><line style="stroke:#A80036;stroke-width:1.0;" x1="140.31" x2="424.31" y1="287.7999" y2="287.7999"/><text fill="#000000" font-family="sans-serif" font-size="14" lengthAdjust="spacing" textLength="40" x="262.31" y="279.9999">State3</text><g id="State3.long1"><rect fill="#FEFECE" filter="url(#fifiv2ebtaxpa)" height="70.3998" rx="12.5" ry="12.5" style="stroke:#A80036;stroke-width:1.0;" width="178" x="152.31" y="355.7999"/><line style="stroke:#A80036;stroke-width:1.0;" x1="152.31" x2="330.31" y1="399.3998" y2="399.3998"/><text fill="#000000" font-family="sans-serif" font-size="14" lengthAdjust="spacing" textLength="158" x="162.31" y="374.7999">Accumulate Enough Data</text><text fill="#000000" font-family="sans-serif" font-size="14" lengthAdjust="spacing" textLength="107" x="187.81" y="391.5998">Long State Name</text><text fill="#000000" font-family="sans-serif" font-size="14" lengthAdjust="spacing" textLength="64" x="157.31" y="418.3997">Just a test</text></g><ellipse cx="241.31" cy="308.7999" fill="#000000" filter="url(#fifiv2ebtaxpa)" rx="10" ry="10" style="stroke:none;stroke-width:1.0;"/><g id="State3.ProcessData"><rect fill="#FEFECE" filter="url(#fifiv2ebtaxpa)" height="50" rx="12.5" ry="12.5" style="stroke:#A80036;stroke-width:1.0;" width="99" x="191.81" y="478.7999"/><line style="stroke:#A80036;stroke-width:1.0;" x1="191.81" x2="290.81" y1="505.5999" y2="505.5999"/><text fill="#000000" font-family="sans-serif" font-size="14" lengthAdjust="spacing" textLength="79" x="201.81" y="497.7999">ProcessData</text></g><!--MD5=[cbbb8dc237c8185397a1ccf2b0af3080]
link *start*State3 to long1--><g id="link_*start*State3_long1"><path d="M241.31,318.9799 C241.31,326.8799 241.31,338.8499 241.31,350.7099 " fill="none" id="*start*State3-to-long1" style="stroke:#A80036;stroke-width:1.0;"/><polygon fill="#A80036" points="241.31,355.7799,245.31,346.7799,241.31,350.7799,237.31,346.7799,241.31,355.7799" style="stroke:#A80036;stroke-width:1.0;"/></g><!--MD5=[cd06514976a2197e7c66cb27013135c0]
link long1 to long1--><g id="link_long1_long1"><path d="M330.68,382.4199 C341.34,383.9399 348.31,386.7399 348.31,390.7999 C348.31,394.1599 343.53,396.6599 335.83,398.2799 " fill="none" id="long1-to-long1" style="stroke:#A80036;stroke-width:1.0;"/><polygon fill="#A80036" points="330.68,399.1799,340.2334,401.574,335.6056,398.3208,338.8588,393.693,330.68,399.1799" style="stroke:#A80036;stroke-width:1.0;"/><text fill="#000000" font-family="sans-serif" font-size="13" lengthAdjust="spacing" textLength="55" x="354.31" y="396.2999">New Data</text></g><!--MD5=[02e543224095a440a3409c6f97e15d1f]
link long1 to ProcessData--><g id="link_long1_ProcessData"><path d="M241.31,426.0099 C241.31,441.2099 241.31,458.9299 241.31,473.5099 " fill="none" id="long1-to-ProcessData" style="stroke:#A80036;stroke-width:1.0;"/><polygon fill="#A80036" points="241.31,478.7299,245.31,469.7299,241.31,473.7299,237.31,469.7299,241.31,478.7299" style="stroke:#A80036;stroke-width:1.0;"/><text fill="#000000" font-family="sans-serif" font-size="13" lengthAdjust="spacing" textLength="73" x="242.31" y="457.7999">Enough Data</text></g><!--MD5=[60533a5dc91355c93bf187ba4549d745]
link *start to State1--><g id="link_*start_State1"><path d="M390.56,32 C400.4,32 410.23,32 420.07,32 " fill="none" id="*start-to-State1" style="stroke:#A80036;stroke-width:1.0;"/><polygon fill="#A80036" points="425.21,32,416.21,28,420.21,32,416.21,36,425.21,32" style="stroke:#A80036;stroke-width:1.0;"/></g><!--MD5=[dc702cd49c4e27e6abb2620dc4bb28d8]
link State1 to State2--><g id="link_State1_State2"><path d="M425.18,54.77 C394.88,76.66 348.24,110.36 316.56,133.25 " fill="none" id="State1-to-State2" style="stroke:#A80036;stroke-width:1.0;"/><polygon fill="#A80036" points="312.39,136.27,322.0286,134.2458,316.4441,133.3436,317.3463,127.7591,312.39,136.27" style="stroke:#A80036;stroke-width:1.0;"/><text fill="#000000" font-family="sans-serif" font-size="13" lengthAdjust="spacing" textLength="65" x="379.31" y="101">Succeeded</text></g><!--MD5=[ca1046a354e184ac9d197a073cc82934]
link State1 to *end--><g id="link_State1_*end"><path d="M467.63,57.25 C505.56,135.61 611.85,386.29 507.31,547 C461.6,617.27 347.9,630.12 306.61,632.47 " fill="none" id="State1-to-*end" style="stroke:#A80036;stroke-width:1.0;"/><polygon fill="#A80036" points="301.5,632.73,310.6936,636.2625,306.4934,632.4732,310.2827,628.273,301.5,632.73" style="stroke:#A80036;stroke-width:1.0;"/><text fill="#000000" font-family="sans-serif" font-size="13" lengthAdjust="spacing" textLength="45" x="531.31" y="228">Aborted</text></g><!--MD5=[428d136baf6462f9e03ffacdcb621855]
link State2 to State3--><g id="link_State2_State3"><path d="M282.31,184.19 C282.31,201.99 282.31,227.83 282.31,255.56 " fill="none" id="State2-to-State3" style="stroke:#A80036;stroke-width:1.0;"/><polygon fill="#A80036" points="282.31,260.76,286.31,251.76,282.31,255.76,278.31,251.76,282.31,260.76" style="stroke:#A80036;stroke-width:1.0;"/><text fill="#000000" font-family="sans-serif" font-size="13" lengthAdjust="spacing" textLength="65" x="283.31" y="228">Succeeded</text></g><!--MD5=[37ebb224bae70bf8df0e6bab9d19d55b]
link State2 to *end--><g id="link_State2_*end"><path d="M252.04,164.59 C204.66,173.59 114.4,198.43 75.31,261 C7.96,368.8 6,440.45 75.31,547 C121.02,617.27 234.72,630.12 276.01,632.47 " fill="none" id="State2-to-*end" style="stroke:#A80036;stroke-width:1.0;"/><polygon fill="#A80036" points="281.12,632.73,272.3373,628.273,276.1266,632.4732,271.9264,636.2625,281.12,632.73" style="stroke:#A80036;stroke-width:1.0;"/><text fill="#000000" font-family="sans-serif" font-size="13" lengthAdjust="spacing" textLength="45" x="76.31" y="409.5">Aborted</text></g><!--MD5=[8ec7ebc35d95dc19dc51ed7d52bc84fe]
link State3 to State3--><g id="link_State3_State3"><path d="M424.32,373.46 C445.21,378.26 459.31,388.44 459.31,404 C459.31,418.22 447.53,427.95 429.55,433.18 " fill="none" id="State3-to-State3" style="stroke:#A80036;stroke-width:1.0;"/><polygon fill="#A80036" points="424.32,434.54,434.033,436.1703,429.1622,433.2936,432.0388,428.4228,424.32,434.54" style="stroke:#A80036;stroke-width:1.0;"/><text fill="#000000" font-family="sans-serif" font-size="13" lengthAdjust="spacing" textLength="35" x="465.31" y="409.5">Failed</text></g><!--MD5=[0ea1e5ee684c4e9667d1229adf70964c]
link State3 to *end--><g id="link_State3_*end"><path d="M185.26,547.1 C183.55,563.35 186.47,579.33 196.31,594 C214.25,620.76 254.19,629.17 276.14,631.81 " fill="none" id="State3-to-*end" style="stroke:#A80036;stroke-width:1.0;"/><polygon fill="#A80036" points="281.31,632.36,272.7833,627.4309,276.338,631.8314,271.9375,635.386,281.31,632.36" style="stroke:#A80036;stroke-width:1.0;"/><text fill="#000000" font-family="sans-serif" font-size="13" lengthAdjust="spacing" textLength="143" x="197.31" y="591">Succeeded / Save Result</text></g><!--MD5=[0ea1e5ee684c4e9667d1229adf70964c]
link State3 to *end--><g id="link_State3_*end"><path d="M338.65,547.07 C341.29,557.1 343.56,567.14 345.31,577 C346.63,584.44 348.75,587.27 345.31,594 C337.04,610.18 318.57,621.19 305.55,627.28 " fill="none" id="State3-to-*end-1" style="stroke:#A80036;stroke-width:1.0;"/><polygon fill="#A80036" points="300.68,629.45,310.5289,629.4443,305.2479,627.4167,307.2755,622.1357,300.68,629.45" style="stroke:#A80036;stroke-width:1.0;"/><text fill="#000000" font-family="sans-serif" font-size="13" lengthAdjust="spacing" textLength="45" x="347.31" y="591">Aborted</text></g><!--MD5=[337823d0ed1956afa86e9a90ced74920]
@startuml
skin rose

[*] -> State1
State1 - -> State2 : Succeeded
State1 - -> [*] : Aborted
State2 - -> State3 : Succeeded
State2 - -> [*] : Aborted
state State3 {
  state "Accumulate Enough Data\nLong State Name" as long1
  long1 : Just a test
  [*] - -> long1
  long1 - -> long1 : New Data
  long1 - -> ProcessData : Enough Data
}
State3 - -> State3 : Failed
State3 - -> [*] : Succeeded / Save Result
State3 - -> [*] : Aborted

@enduml

PlantUML version 1.2022.3(Tue Mar 29 16:10:57 GMT 2022)
(GPL source distribution)
Java Runtime: OpenJDK Runtime Environment
JVM: OpenJDK 64-Bit Server VM
Default Encoding: UTF-8
Language: en
Country: US
--></g></svg>