<?xml version="1.0" encoding="UTF-8" standalone="no"?><svg xmlns="http://www.w3.org/2000/svg" xmlns:xlink="http://www.w3.org/1999/xlink" contentStyleType="text/css" height="230px" preserveAspectRatio="none" style="width:435px;height:230px;background:#FFFFFF;" version="1.1" viewBox="0 0 435 230" width="435px" zoomAndPan="magnify"><defs/><g><line style="stroke:#333333;stroke-width:0.5;" x1="10" x2="10" y1="10" y2="200.4001"/><line style="stroke:#333333;stroke-width:0.5;" x1="418" x2="418" y1="10" y2="200.4001"/><line style="stroke:#333333;stroke-width:0.5;stroke-dasharray:3.0,5.0;" x1="113" x2="113" y1="10" y2="200.4001"/><line style="stroke:#333333;stroke-width:0.5;stroke-dasharray:3.0,5.0;" x1="163" x2="163" y1="10" y2="200.4001"/><line style="stroke:#333333;stroke-width:0.5;stroke-dasharray:3.0,5.0;" x1="213" x2="213" y1="10" y2="200.4001"/><line style="stroke:#333333;stroke-width:0.5;stroke-dasharray:3.0,5.0;" x1="263" x2="263" y1="10" y2="200.4001"/><line style="stroke:#333333;stroke-width:0.5;stroke-dasharray:3.0,5.0;" x1="313" x2="313" y1="10" y2="200.4001"/><line style="stroke:#333333;stroke-width:0.5;stroke-dasharray:3.0,5.0;" x1="363" x2="363" y1="10" y2="200.4001"/><line style="stroke:#333333;stroke-width:0.5;stroke-dasharray:3.0,5.0;" x1="413" x2="413" y1="10" y2="200.4001"/><line style="stroke:#333333;stroke-width:0.5;" x1="10" x2="418" y1="10" y2="10"/><text fill="#333333" font-family="sans-serif" font-size="14" font-weight="bold" lengthAdjust="spacing" textLength="90" x="15" y="23.9999">Web Browser</text><line style="stroke:#333333;stroke-width:0.5;" x1="10" x2="106" y1="27.7999" y2="27.7999"/><line style="stroke:#333333;stroke-width:0.5;" x1="106" x2="116" y1="27.7999" y2="10"/><text fill="#333333" font-family="sans-serif" font-size="12" lengthAdjust="spacing" textLength="53" x="15" y="118.0001">Initializing</text><text fill="#333333" font-family="sans-serif" font-size="12" lengthAdjust="spacing" textLength="19" x="15" y="98.0001">idle</text><text fill="#333333" font-family="sans-serif" font-size="12" lengthAdjust="spacing" textLength="58" x="15" y="78.0001">Processing</text><text fill="#333333" font-family="sans-serif" font-size="12" lengthAdjust="spacing" textLength="40" x="15" y="58.0001">Waiting</text><line style="stroke:#006400;stroke-width:2.0;" x1="73" x2="113" y1="112.2" y2="112.2"/><line style="stroke:#006400;stroke-width:2.0;" x1="113" x2="213" y1="92.2" y2="92.2"/><line style="stroke:#006400;stroke-width:2.0;" x1="213" x2="263" y1="72.2" y2="72.2"/><line style="stroke:#006400;stroke-width:2.0;" x1="263" x2="413" y1="52.2" y2="52.2"/><line style="stroke:#006400;stroke-width:2.0;" x1="113" x2="113" y1="92.2" y2="112.2"/><line style="stroke:#006400;stroke-width:2.0;" x1="213" x2="213" y1="72.2" y2="92.2"/><line style="stroke:#006400;stroke-width:2.0;" x1="263" x2="263" y1="52.2" y2="72.2"/><line style="stroke:#8B0000;stroke-width:1.5;" x1="113" x2="138" y1="87.2" y2="87.2"/><polygon fill="#8B0000" points="120.5175,84.4639,120.5175,89.9362,113,87.2" style="stroke:#8B0000;stroke-width:2.0;"/><polygon fill="#8B0000" points="130.4825,89.9362,130.4825,84.4639,138,87.2" style="stroke:#8B0000;stroke-width:2.0;"/><text fill="#8B0000" font-family="sans-serif" font-size="12" lengthAdjust="spacing" textLength="61" x="95" y="79.8">{50 ms lag}</text><line style="stroke:#333333;stroke-width:0.5;" x1="10" x2="418" y1="124.2" y2="124.2"/><text fill="#333333" font-family="sans-serif" font-size="14" font-weight="bold" lengthAdjust="spacing" textLength="65" x="15" y="138.2">Web User</text><line style="stroke:#333333;stroke-width:0.5;" x1="10" x2="81" y1="142" y2="142"/><line style="stroke:#333333;stroke-width:0.5;" x1="81" x2="91" y1="142" y2="124.2"/><polygon fill="#E2E2F0" points="49,166.4001,101,166.4001,113,178.4001,101,190.4001,49,190.4001" style="stroke:#E2E2F0;stroke-width:1.5;"/><path d="M49,166.4001 L101,166.4001 L113,178.4001 L101,190.4001 L49,190.4001 " fill="#E2E2F0" style="stroke:#006400;stroke-width:1.5;"/><text fill="#333333" font-family="sans-serif" font-size="12" font-weight="bold" lengthAdjust="spacing" textLength="40" x="61" y="183.2001">Absent</text><polygon fill="#E2E2F0" points="125,166.4001,351,166.4001,363,178.4001,351,190.4001,125,190.4001,113,178.4001" style="stroke:#006400;stroke-width:1.5;"/><polygon fill="#E2E2F0" points="375,166.4001,413,166.4001,413,190.4001,375,190.4001,363,178.4001" style="stroke:#E2E2F0;stroke-width:1.5;"/><path d="M413,166.4001 L375,166.4001 L363,178.4001 L375,190.4001 L413,190.4001 " fill="#E2E2F0" style="stroke:#006400;stroke-width:1.5;"/><text fill="#333333" font-family="sans-serif" font-size="12" font-weight="bold" lengthAdjust="spacing" textLength="43" x="216.5" y="183.2001">Waiting</text><text fill="#333333" font-family="sans-serif" font-size="12" font-weight="bold" lengthAdjust="spacing" textLength="14" x="375" y="183.2001">ok</text><line style="stroke:#8B0000;stroke-width:1.5;" x1="213" x2="288" y1="156.7" y2="156.7"/><polygon fill="#8B0000" points="220.5175,153.9638,220.5175,159.4362,213,156.7" style="stroke:#8B0000;stroke-width:1.0;"/><polygon fill="#8B0000" points="280.4825,159.4362,280.4825,153.9638,288,156.7" style="stroke:#8B0000;stroke-width:1.0;"/><text fill="#8B0000" font-family="sans-serif" font-size="12" lengthAdjust="spacing" textLength="48" x="226.5" y="149.3">{150 ms}</text><line style="stroke:#333333;stroke-width:2.0;" x1="113" x2="113" y1="200.4001" y2="205.4001"/><line style="stroke:#333333;stroke-width:2.0;" x1="163" x2="163" y1="200.4001" y2="205.4001"/><line style="stroke:#333333;stroke-width:2.0;" x1="213" x2="213" y1="200.4001" y2="205.4001"/><line style="stroke:#333333;stroke-width:2.0;" x1="263" x2="263" y1="200.4001" y2="205.4001"/><line style="stroke:#333333;stroke-width:2.0;" x1="313" x2="313" y1="200.4001" y2="205.4001"/><line style="stroke:#333333;stroke-width:2.0;" x1="363" x2="363" y1="200.4001" y2="205.4001"/><line style="stroke:#333333;stroke-width:2.0;" x1="413" x2="413" y1="200.4001" y2="205.4001"/><line style="stroke:#333333;stroke-width:2.0;" x1="113" x2="413" y1="200.4001" y2="200.4001"/><text fill="#333333" font-family="sans-serif" font-size="11" lengthAdjust="spacing" textLength="6" x="110" y="217.4">0</text><text fill="#333333" font-family="sans-serif" font-size="11" lengthAdjust="spacing" textLength="18" x="204" y="217.4">200</text><text fill="#333333" font-family="sans-serif" font-size="11" lengthAdjust="spacing" textLength="18" x="254" y="217.4">300</text><text fill="#333333" font-family="sans-serif" font-size="11" lengthAdjust="spacing" textLength="18" x="354" y="217.4">500</text><!--MD5=[b8576b1d209f2285ba39cfbf85a4cffd]
@startuml
robust "Web Browser" as WB
concise "Web User" as WU

WB is Initializing
WU is Absent

@WB
0 is idle
+200 is Processing
+100 is Waiting
WB@0 <-> @50 : {50 ms lag}

@WU
0 is Waiting
+500 is ok
@200 <-> @+150 : {150 ms}
@enduml

PlantUML version 1.2022.3(Tue Mar 29 16:10:57 GMT 2022)
(GPL source distribution)
Java Runtime: OpenJDK Runtime Environment
JVM: OpenJDK 64-Bit Server VM
Default Encoding: UTF-8
Language: en
Country: US
--></g></svg>