<?xml version="1.0" encoding="UTF-8" standalone="no"?><svg xmlns="http://www.w3.org/2000/svg" xmlns:xlink="http://www.w3.org/1999/xlink" contentStyleType="text/css" height="381px" preserveAspectRatio="none" style="width:1398px;height:381px;background:#FFFFFF;" version="1.1" viewBox="0 0 1398 381" width="1398px" zoomAndPan="magnify"><defs><filter height="300%" id="felkik7tfp1qx" width="300%" x="-1" y="-1"><feGaussianBlur result="blurOut" stdDeviation="2.0"/><feColorMatrix in="blurOut" result="blurOut2" type="matrix" values="0 0 0 0 0 0 0 0 0 0 0 0 0 0 0 0 0 0 .4 0"/><feOffset dx="4.0" dy="4.0" in="blurOut2" result="blurOut3"/><feBlend in="SourceGraphic" in2="blurOut3" mode="normal"/></filter></defs><g><!--MD5=[d4873e07717233af0d37b192d4f73cba]
entity foo1--><g id="elem_foo1"><ellipse cx="371" cy="14" fill="#FEFECE" filter="url(#felkik7tfp1qx)" rx="8" ry="8" style="stroke:#A80036;stroke-width:2.0;"/><path d="M371,22 L371,49 M358,30 L384,30 M371,49 L358,64 M371,49 L384,64 " fill="none" filter="url(#felkik7tfp1qx)" style="stroke:#A80036;stroke-width:2.0;"/><text fill="#000000" font-family="sans-serif" font-size="14" lengthAdjust="spacing" textLength="26" x="358" y="84.9999">foo1</text></g><!--MD5=[70f4f2f2902a7ea41b81327309970ed7]
entity foo2--><g id="elem_foo2"><ellipse cx="371" cy="158" fill="#FEFECE" filter="url(#felkik7tfp1qx)" rx="8" ry="8" style="stroke:#A80036;stroke-width:2.0;"/><path d="M371,166 L371,193 M358,174 L384,174 M371,193 L358,208 M371,193 L384,208 " fill="none" filter="url(#felkik7tfp1qx)" style="stroke:#A80036;stroke-width:2.0;"/><text fill="#000000" font-family="sans-serif" font-size="14" lengthAdjust="spacing" textLength="26" x="358" y="228.9999">foo2</text></g><g id="elem_ac1"><ellipse cx="97.2487" cy="189.8793" fill="#FEFECE" filter="url(#felkik7tfp1qx)" rx="27.7487" ry="14.8793" style="stroke:#A80036;stroke-width:1.0;"/><text fill="#000000" font-family="sans-serif" font-size="14" lengthAdjust="spacing" textLength="23" x="85.7487" y="193.4793">ac1</text></g><!--MD5=[de68cb016a427fece96b1a1523034918]
entity left1--><g id="elem_left1"><ellipse cx="19" cy="158" fill="#FEFECE" filter="url(#felkik7tfp1qx)" rx="8" ry="8" style="stroke:#A80036;stroke-width:2.0;"/><path d="M19,166 L19,193 M6,174 L32,174 M19,193 L6,208 M19,193 L32,208 " fill="none" filter="url(#felkik7tfp1qx)" style="stroke:#A80036;stroke-width:2.0;"/><text fill="#000000" font-family="sans-serif" font-size="14" lengthAdjust="spacing" textLength="26" x="6" y="228.9999">left1</text></g><!--MD5=[6d8c7f888472c021908af0555b6d40de]
entity right1--><g id="elem_right1"><ellipse cx="178" cy="158" fill="#FEFECE" filter="url(#felkik7tfp1qx)" rx="8" ry="8" style="stroke:#A80036;stroke-width:2.0;"/><path d="M178,166 L178,193 M165,174 L191,174 M178,193 L165,208 M178,193 L191,208 " fill="none" filter="url(#felkik7tfp1qx)" style="stroke:#A80036;stroke-width:2.0;"/><text fill="#000000" font-family="sans-serif" font-size="14" lengthAdjust="spacing" textLength="36" x="160" y="228.9999">right1</text></g><!--MD5=[6b5110e1d1872780b22b589759068f96]
entity up1--><g id="elem_up1"><ellipse cx="130" cy="14" fill="#FEFECE" filter="url(#felkik7tfp1qx)" rx="8" ry="8" style="stroke:#A80036;stroke-width:2.0;"/><path d="M130,22 L130,49 M117,30 L143,30 M130,49 L117,64 M130,49 L143,64 " fill="none" filter="url(#felkik7tfp1qx)" style="stroke:#A80036;stroke-width:2.0;"/><text fill="#000000" font-family="sans-serif" font-size="14" lengthAdjust="spacing" textLength="24" x="118" y="84.9999">up1</text></g><!--MD5=[e9bb9e561c9ac0aa3c349e1e9e4790d7]
entity up2--><g id="elem_up2"><ellipse cx="65" cy="14" fill="#FEFECE" filter="url(#felkik7tfp1qx)" rx="8" ry="8" style="stroke:#A80036;stroke-width:2.0;"/><path d="M65,22 L65,49 M52,30 L78,30 M65,49 L52,64 M65,49 L78,64 " fill="none" filter="url(#felkik7tfp1qx)" style="stroke:#A80036;stroke-width:2.0;"/><text fill="#000000" font-family="sans-serif" font-size="14" lengthAdjust="spacing" textLength="24" x="53" y="84.9999">up2</text></g><!--MD5=[955a7ba96e9813e2f112fbd8c75aa89a]
entity down1--><g id="elem_down1"><ellipse cx="59" cy="302" fill="#FEFECE" filter="url(#felkik7tfp1qx)" rx="8" ry="8" style="stroke:#A80036;stroke-width:2.0;"/><path d="M59,310 L59,337 M46,318 L72,318 M59,337 L46,352 M59,337 L72,352 " fill="none" filter="url(#felkik7tfp1qx)" style="stroke:#A80036;stroke-width:2.0;"/><text fill="#000000" font-family="sans-serif" font-size="14" lengthAdjust="spacing" textLength="41" x="38.5" y="372.9999">down1</text></g><!--MD5=[0918d2da4a65c6c3bc88e0362db30282]
entity down2--><g id="elem_down2"><ellipse cx="135" cy="302" fill="#FEFECE" filter="url(#felkik7tfp1qx)" rx="8" ry="8" style="stroke:#A80036;stroke-width:2.0;"/><path d="M135,310 L135,337 M122,318 L148,318 M135,337 L122,352 M135,337 L148,352 " fill="none" filter="url(#felkik7tfp1qx)" style="stroke:#A80036;stroke-width:2.0;"/><text fill="#000000" font-family="sans-serif" font-size="14" lengthAdjust="spacing" textLength="41" x="114.5" y="372.9999">down2</text></g><!--MD5=[b4169b9244bc69ec48b9c046c001b1bb]
entity actor1--><g id="elem_actor1"><ellipse cx="441" cy="14" fill="#FEFECE" filter="url(#felkik7tfp1qx)" rx="8" ry="8" style="stroke:#A80036;stroke-width:2.0;"/><path d="M441,22 L441,49 M428,30 L454,30 M441,49 L428,64 M441,49 L454,64 " fill="none" filter="url(#felkik7tfp1qx)" style="stroke:#A80036;stroke-width:2.0;"/><text fill="#000000" font-family="sans-serif" font-size="14" lengthAdjust="spacing" textLength="39" x="421.5" y="84.9999">actor1</text></g><!--MD5=[47d04bfa183c2d3f22cd34f901e4d5b2]
entity actor2--><g id="elem_actor2"><ellipse cx="441" cy="158" fill="#FEFECE" filter="url(#felkik7tfp1qx)" rx="8" ry="8" style="stroke:#A80036;stroke-width:2.0;"/><path d="M441,166 L441,193 M428,174 L454,174 M441,193 L428,208 M441,193 L454,208 " fill="none" filter="url(#felkik7tfp1qx)" style="stroke:#A80036;stroke-width:2.0;"/><text fill="#000000" font-family="sans-serif" font-size="14" lengthAdjust="spacing" textLength="39" x="421.5" y="228.9999">actor2</text></g><!--MD5=[9f289ca539b650134df838be30977bdf]
entity comp1--><g id="elem_comp1"><rect fill="#FEFECE" filter="url(#felkik7tfp1qx)" height="46.7999" style="stroke:#A80036;stroke-width:1.0;" width="81" x="569.5" y="22.5"/><rect fill="#FEFECE" height="10" style="stroke:#A80036;stroke-width:1.0;" width="15" x="630.5" y="27.5"/><rect fill="#FEFECE" height="2" style="stroke:#A80036;stroke-width:1.0;" width="4" x="628.5" y="29.5"/><rect fill="#FEFECE" height="2" style="stroke:#A80036;stroke-width:1.0;" width="4" x="628.5" y="33.5"/><text fill="#000000" font-family="sans-serif" font-size="14" lengthAdjust="spacing" textLength="41" x="584.5" y="56.4999">comp1</text></g><!--MD5=[9ce2ef9ab72501d0b0a005ad96e63d6d]
entity comp2--><g id="elem_comp2"><rect fill="#FEFECE" filter="url(#felkik7tfp1qx)" height="46.7999" style="stroke:#A80036;stroke-width:1.0;" width="81" x="495.5" y="166.5"/><rect fill="#FEFECE" height="10" style="stroke:#A80036;stroke-width:1.0;" width="15" x="556.5" y="171.5"/><rect fill="#FEFECE" height="2" style="stroke:#A80036;stroke-width:1.0;" width="4" x="554.5" y="173.5"/><rect fill="#FEFECE" height="2" style="stroke:#A80036;stroke-width:1.0;" width="4" x="554.5" y="177.5"/><text fill="#000000" font-family="sans-serif" font-size="14" lengthAdjust="spacing" textLength="41" x="510.5" y="200.4999">comp2</text></g><!--MD5=[b0987787102391d442837cbcbe544d9b]
entity comp3--><g id="elem_comp3"><rect fill="#FEFECE" filter="url(#felkik7tfp1qx)" height="46.7999" style="stroke:#A80036;stroke-width:1.0;" width="81" x="730.5" y="22.5"/><rect fill="#FEFECE" height="10" style="stroke:#A80036;stroke-width:1.0;" width="15" x="791.5" y="27.5"/><rect fill="#FEFECE" height="2" style="stroke:#A80036;stroke-width:1.0;" width="4" x="789.5" y="29.5"/><rect fill="#FEFECE" height="2" style="stroke:#A80036;stroke-width:1.0;" width="4" x="789.5" y="33.5"/><text fill="#000000" font-family="sans-serif" font-size="14" lengthAdjust="spacing" textLength="41" x="745.5" y="56.4999">comp3</text></g><!--MD5=[872e7249418d416d387577d1a7b264cc]
entity comp4--><g id="elem_comp4"><rect fill="#FEFECE" filter="url(#felkik7tfp1qx)" height="46.7999" style="stroke:#A80036;stroke-width:1.0;" width="81" x="730.5" y="166.5"/><rect fill="#FEFECE" height="10" style="stroke:#A80036;stroke-width:1.0;" width="15" x="791.5" y="171.5"/><rect fill="#FEFECE" height="2" style="stroke:#A80036;stroke-width:1.0;" width="4" x="789.5" y="173.5"/><rect fill="#FEFECE" height="2" style="stroke:#A80036;stroke-width:1.0;" width="4" x="789.5" y="177.5"/><text fill="#000000" font-family="sans-serif" font-size="14" lengthAdjust="spacing" textLength="41" x="745.5" y="200.4999">comp4</text></g><!--MD5=[55492eb1c4b62cc9e892e1fafdaeb44c]
entity b1--><g id="elem_b1"><path d="M850.5,25.5 L850.5,49.5 M850.5,37.5 L867.5,37.5 " fill="none" filter="url(#felkik7tfp1qx)" style="stroke:#A80036;stroke-width:2.0;"/><ellipse cx="879.5" cy="37.5" fill="#FEFECE" filter="url(#felkik7tfp1qx)" rx="12" ry="12" style="stroke:#A80036;stroke-width:2.0;"/><text fill="#000000" font-family="sans-serif" font-size="14" lengthAdjust="spacing" textLength="16" x="863" y="67.4999">b1</text></g><!--MD5=[0aac872f208ab6f5f7887aae079fb447]
entity c1--><g id="elem_c1"><ellipse cx="871" cy="181.5" fill="#FEFECE" filter="url(#felkik7tfp1qx)" rx="12" ry="12" style="stroke:#A80036;stroke-width:2.0;"/><polygon fill="#A80036" points="867,169.5,873,164.5,871,169.5,873,174.5,867,169.5" style="stroke:#A80036;stroke-width:1.0;"/><text fill="#000000" font-family="sans-serif" font-size="14" lengthAdjust="spacing" textLength="15" x="863.5" y="211.4999">c1</text></g><!--MD5=[362421b883c4ef7f8b848687b6cbb6fd]
entity interf1--><g id="elem_interf1"><ellipse cx="639" cy="190" fill="#FEFECE" filter="url(#felkik7tfp1qx)" rx="8" ry="8" style="stroke:#A80036;stroke-width:1.0;"/><text fill="#000000" font-family="sans-serif" font-size="14" lengthAdjust="spacing" textLength="39" x="619.5" y="220.9999">interf1</text></g><!--MD5=[84ef7a1b4c618e2c4fd7a6a73fa68073]
entity mode1actor--><g id="elem_mode1actor"><ellipse cx="967" cy="14" fill="#FEFECE" filter="url(#felkik7tfp1qx)" rx="8" ry="8" style="stroke:#A80036;stroke-width:2.0;"/><path d="M967,22 L967,49 M954,30 L980,30 M967,49 L954,64 M967,49 L980,64 " fill="none" filter="url(#felkik7tfp1qx)" style="stroke:#A80036;stroke-width:2.0;"/><text fill="#000000" font-family="sans-serif" font-size="14" lengthAdjust="spacing" textLength="72" x="931" y="84.9999">mode1actor</text></g><!--MD5=[4976a5b047286902c57c2e1f61e2adaf]
entity fooa1--><g id="elem_fooa1"><ellipse cx="967" cy="158" fill="#FEFECE" filter="url(#felkik7tfp1qx)" rx="8" ry="8" style="stroke:#A80036;stroke-width:2.0;"/><path d="M967,166 L967,193 M954,174 L980,174 M967,193 L954,208 M967,193 L980,208 " fill="none" filter="url(#felkik7tfp1qx)" style="stroke:#A80036;stroke-width:2.0;"/><text fill="#000000" font-family="sans-serif" font-size="14" lengthAdjust="spacing" textLength="34" x="950" y="228.9999">fooa1</text></g><!--MD5=[0eb79c23e328b9541d3bb49a06c3a411]
entity mode1actorl--><g id="elem_mode1actorl"><ellipse cx="218" cy="14" fill="#FEFECE" filter="url(#felkik7tfp1qx)" rx="8" ry="8" style="stroke:#A80036;stroke-width:2.0;"/><path d="M218,22 L218,49 M205,30 L231,30 M218,49 L205,64 M218,49 L231,64 " fill="none" filter="url(#felkik7tfp1qx)" style="stroke:#A80036;stroke-width:2.0;"/><text fill="#000000" font-family="sans-serif" font-size="14" lengthAdjust="spacing" textLength="75" x="180.5" y="84.9999">mode1actorl</text></g><!--MD5=[8f63ece581d86850734b100ee1c096e7]
entity foo1l--><g id="elem_foo1l"><ellipse cx="306" cy="14" fill="#FEFECE" filter="url(#felkik7tfp1qx)" rx="8" ry="8" style="stroke:#A80036;stroke-width:2.0;"/><path d="M306,22 L306,49 M293,30 L319,30 M306,49 L293,64 M306,49 L319,64 " fill="none" filter="url(#felkik7tfp1qx)" style="stroke:#A80036;stroke-width:2.0;"/><text fill="#000000" font-family="sans-serif" font-size="14" lengthAdjust="spacing" textLength="29" x="291.5" y="84.9999">foo1l</text></g><!--MD5=[6e0b287d7aada176fb97614f32c2bf1c]
entity component1--><g id="elem_component1"><rect fill="#FEFECE" filter="url(#felkik7tfp1qx)" height="46.7999" style="stroke:#A80036;stroke-width:1.0;" width="115" x="1038.5" y="22.5"/><rect fill="#FEFECE" height="10" style="stroke:#A80036;stroke-width:1.0;" width="15" x="1133.5" y="27.5"/><rect fill="#FEFECE" height="2" style="stroke:#A80036;stroke-width:1.0;" width="4" x="1131.5" y="29.5"/><rect fill="#FEFECE" height="2" style="stroke:#A80036;stroke-width:1.0;" width="4" x="1131.5" y="33.5"/><text fill="#000000" font-family="sans-serif" font-size="14" lengthAdjust="spacing" textLength="75" x="1053.5" y="56.4999">component1</text></g><!--MD5=[7ababdcd263ee09e9a4f093377d957c1]
entity componentC--><g id="elem_componentC"><rect fill="#FEFECE" filter="url(#felkik7tfp1qx)" height="46.7999" style="stroke:#A80036;stroke-width:1.0;" width="117" x="1099.5" y="166.5"/><rect fill="#FEFECE" height="10" style="stroke:#A80036;stroke-width:1.0;" width="15" x="1196.5" y="171.5"/><rect fill="#FEFECE" height="2" style="stroke:#A80036;stroke-width:1.0;" width="4" x="1194.5" y="173.5"/><rect fill="#FEFECE" height="2" style="stroke:#A80036;stroke-width:1.0;" width="4" x="1194.5" y="177.5"/><text fill="#000000" font-family="sans-serif" font-size="14" lengthAdjust="spacing" textLength="77" x="1114.5" y="200.4999">componentC</text></g><!--MD5=[adc982a932cb2f076949bd1cd03ce467]
entity component3--><g id="elem_component3"><ellipse cx="1234" cy="46" fill="#FEFECE" filter="url(#felkik7tfp1qx)" rx="8" ry="8" style="stroke:#A80036;stroke-width:1.0;"/><text fill="#000000" font-family="sans-serif" font-size="14" lengthAdjust="spacing" textLength="75" x="1196.5" y="76.9999">component3</text></g><!--MD5=[3ba65bc1a471fcc23c939f130c8ded31]
entity aze1--><g id="elem_aze1"><rect fill="#FEFECE" filter="url(#felkik7tfp1qx)" height="46.7999" style="stroke:#A80036;stroke-width:1.0;" width="70" x="1314" y="22.5"/><rect fill="#FEFECE" height="10" style="stroke:#A80036;stroke-width:1.0;" width="15" x="1364" y="27.5"/><rect fill="#FEFECE" height="2" style="stroke:#A80036;stroke-width:1.0;" width="4" x="1362" y="29.5"/><rect fill="#FEFECE" height="2" style="stroke:#A80036;stroke-width:1.0;" width="4" x="1362" y="33.5"/><text fill="#000000" font-family="sans-serif" font-size="14" lengthAdjust="spacing" textLength="30" x="1329" y="56.4999">aze1</text></g><!--MD5=[23fec14606f56675691a069e4cdfa117]
entity aze2--><g id="elem_aze2"><rect fill="#FEFECE" filter="url(#felkik7tfp1qx)" height="46.7999" style="stroke:#A80036;stroke-width:1.0;" width="70" x="1314" y="166.5"/><rect fill="#FEFECE" height="10" style="stroke:#A80036;stroke-width:1.0;" width="15" x="1364" y="171.5"/><rect fill="#FEFECE" height="2" style="stroke:#A80036;stroke-width:1.0;" width="4" x="1362" y="173.5"/><rect fill="#FEFECE" height="2" style="stroke:#A80036;stroke-width:1.0;" width="4" x="1362" y="177.5"/><text fill="#000000" font-family="sans-serif" font-size="14" lengthAdjust="spacing" textLength="30" x="1329" y="200.4999">aze2</text></g><!--MD5=[fbab11f161143cf01a766cef342eb953]
link foo1 to foo2--><g id="link_foo1_foo2"><path d="M358.96,93.41 C358.02,109.08 358.01,126.58 358.94,142.28 " fill="none" id="foo1-foo2" style="stroke:#A80036;stroke-width:1.0;"/><polygon fill="#A80036" points="359.29,147.53,362.6895,138.2864,358.9612,142.5408,354.7068,138.8125,359.29,147.53" style="stroke:#A80036;stroke-width:1.0;"/><polygon fill="#A80036" points="359.32,88.07,354.712,96.7744,358.977,93.0582,362.6931,97.3232,359.32,88.07" style="stroke:#A80036;stroke-width:1.0;"/><ellipse cx="358.2488" cy="117.8338" fill="#FFFFFF" rx="6" ry="6" style="stroke:#A80036;stroke-width:1.5;"/></g><!--MD5=[fbab11f161143cf01a766cef342eb953]
link foo1 to foo2--><g id="link_foo1_foo2"><path d="M383.75,93.41 C384.74,109.08 384.75,126.58 383.77,142.28 " fill="none" id="foo1-foo2-1" style="stroke:#A80036;stroke-width:1.0;"/><polygon fill="#A80036" points="383.4,147.53,388.008,138.8256,383.743,142.5418,380.0269,138.2768,383.4,147.53" style="stroke:#A80036;stroke-width:1.0;"/><polygon fill="#A80036" points="383.37,88.07,380.0233,97.3328,383.7273,93.0572,388.0028,96.7612,383.37,88.07" style="stroke:#A80036;stroke-width:1.0;"/><ellipse cx="384.4988" cy="117.8338" fill="#FFFFFF" rx="10" ry="10" style="stroke:#FFFFFF;stroke-width:1.0;"/><path d="M377.4309,124.908 A10,10 0 0 0 391.573 124.9016" fill="none" style="stroke:#A80036;stroke-width:1.5;"/><path d="M391.5666,110.7595 A10,10 0 0 0 377.4245 110.7659" fill="none" style="stroke:#A80036;stroke-width:1.5;"/><ellipse cx="384.4988" cy="117.8338" fill="#FFFFFF" rx="6" ry="6" style="stroke:#A80036;stroke-width:1.5;"/></g><!--MD5=[fab29d1bd3f938581ce6472cd9a26af8]
reverse link left1 to ac1--><g id="link_left1_ac1"><path d="M39.4,190 C49.28,190 59.17,190 69.05,190 " fill="none" id="left1-backto-ac1" style="stroke:#A80036;stroke-width:1.0;"/><polygon fill="#A80036" points="34.23,190,43.23,194,39.23,190,43.23,186,34.23,190" style="stroke:#A80036;stroke-width:1.0;"/><ellipse cx="54.225" cy="190" fill="#FFFFFF" rx="10" ry="10" style="stroke:#FFFFFF;stroke-width:1.0;"/><path d="M61.2961,197.0711 A10,10 0 0 0 61.2961 182.9289" fill="none" style="stroke:#A80036;stroke-width:1.5;"/><path d="M47.1539,182.9289 A10,10 0 0 0 47.1539 197.0711" fill="none" style="stroke:#A80036;stroke-width:1.5;"/><ellipse cx="54.225" cy="190" fill="#FFFFFF" rx="6" ry="6" style="stroke:#A80036;stroke-width:1.5;"/></g><!--MD5=[238ca449d86bcbe6543f6eb0ec9864c0]
link ac1 to right1--><g id="link_ac1_right1"><path d="M124.53,190 C134.49,190 144.45,190 154.41,190 " fill="none" id="ac1-to-right1" style="stroke:#A80036;stroke-width:1.0;"/><polygon fill="#A80036" points="159.62,190,150.62,186,154.62,190,150.62,194,159.62,190" style="stroke:#A80036;stroke-width:1.0;"/><ellipse cx="139.47" cy="190" fill="#FFFFFF" rx="10" ry="10" style="stroke:#FFFFFF;stroke-width:1.0;"/><path d="M146.5411,197.0711 A10,10 0 0 0 146.5411 182.9289" fill="none" style="stroke:#A80036;stroke-width:1.5;"/><path d="M132.3989,182.9289 A10,10 0 0 0 132.3989 197.0711" fill="none" style="stroke:#A80036;stroke-width:1.5;"/><ellipse cx="139.47" cy="190" fill="#FFFFFF" rx="6" ry="6" style="stroke:#A80036;stroke-width:1.5;"/></g><!--MD5=[5561c28864add9c1ec504b5c82502302]
reverse link up1 to ac1--><g id="link_up1_ac1"><path d="M119.32,92.95 C112.7,121.46 104.63,156.15 100.24,175.06 " fill="none" id="up1-backto-ac1" style="stroke:#A80036;stroke-width:1.0;stroke-dasharray:7.0,7.0;"/><polygon fill="#A80036" points="120.46,88.07,114.532,95.935,119.3315,92.941,122.3255,97.7406,120.46,88.07" style="stroke:#A80036;stroke-width:1.0;"/><ellipse cx="108.9438" cy="137.605" fill="#FFFFFF" rx="10" ry="10" style="stroke:#FFFFFF;stroke-width:1.0;"/><path d="M100.4553,142.8915 A10,10 0 0 0 114.2302 146.0934" fill="none" style="stroke:#A80036;stroke-width:1.5;"/><path d="M117.4322,132.3185 A10,10 0 0 0 103.6573 129.1166" fill="none" style="stroke:#A80036;stroke-width:1.5;"/><ellipse cx="108.9438" cy="137.605" fill="#FFFFFF" rx="6" ry="6" style="stroke:#A80036;stroke-width:1.5;"/></g><!--MD5=[dee9a2e08b23205c8982b7002ccf7d81]
reverse link up2 to ac1--><g id="link_up2_ac1"><path d="M75.36,92.95 C81.78,121.46 89.6,156.15 93.86,175.06 " fill="none" id="up2-backto-ac1" style="stroke:#A80036;stroke-width:1.0;stroke-dasharray:1.0,3.0;"/><polygon fill="#A80036" points="74.26,88.07,72.3136,97.7246,75.3477,92.9503,80.122,95.9843,74.26,88.07" style="stroke:#A80036;stroke-width:1.0;"/><ellipse cx="85.42" cy="137.605" fill="#FFFFFF" rx="10" ry="10" style="stroke:#FFFFFF;stroke-width:1.0;"/><path d="M80.0763,146.0575 A10,10 0 0 0 93.8725 142.9487" fill="none" style="stroke:#A80036;stroke-width:1.5;"/><path d="M90.7637,129.1525 A10,10 0 0 0 76.9675 132.2613" fill="none" style="stroke:#A80036;stroke-width:1.5;"/><ellipse cx="85.42" cy="137.605" fill="#FFFFFF" rx="6" ry="6" style="stroke:#A80036;stroke-width:1.5;"/></g><!--MD5=[9448d52f5056773a3a13973951b0558f]
link ac1 to down1--><g id="link_ac1_down1"><path d="M93.29,204.87 C88.24,223.74 78.96,258.41 71.33,286.93 " fill="none" id="ac1-to-down1" style="stroke:#A80036;stroke-width:1.0;"/><polygon fill="#A80036" points="70.02,291.81,76.2166,284.1548,71.3163,286.981,68.4901,282.0807,70.02,291.81" style="stroke:#A80036;stroke-width:1.0;"/><ellipse cx="83.2775" cy="242.2812" fill="#FFFFFF" rx="10" ry="10" style="stroke:#FFFFFF;stroke-width:1.0;"/><path d="M74.6188,247.2839 A10,10 0 0 0 88.2801 250.94" fill="none" style="stroke:#A80036;stroke-width:1.5;"/><path d="M91.9362,237.2786 A10,10 0 0 0 78.2749 233.6225" fill="none" style="stroke:#A80036;stroke-width:1.5;"/><ellipse cx="83.2775" cy="242.2812" fill="#FFFFFF" rx="6" ry="6" style="stroke:#A80036;stroke-width:1.5;"/></g><!--MD5=[fcc6abf978cc94b37a91791fad9a24da]
link ac1 to down2--><g id="link_ac1_down2"><path d="M100.71,204.87 C105.76,223.74 115.04,258.41 122.67,286.93 " fill="none" id="ac1-to-down2" style="stroke:#A80036;stroke-width:1.0;"/><polygon fill="#A80036" points="123.98,291.81,125.5099,282.0807,122.6837,286.981,117.7834,284.1548,123.98,291.81" style="stroke:#A80036;stroke-width:1.0;"/><ellipse cx="110.7225" cy="242.2812" fill="#FFFFFF" rx="10" ry="10" style="stroke:#FFFFFF;stroke-width:1.0;"/><path d="M105.7199,250.94 A10,10 0 0 0 119.3812 247.2839" fill="none" style="stroke:#A80036;stroke-width:1.5;"/><path d="M115.7251,233.6225 A10,10 0 0 0 102.0638 237.2786" fill="none" style="stroke:#A80036;stroke-width:1.5;"/><ellipse cx="110.7225" cy="242.2812" fill="#FFFFFF" rx="6" ry="6" style="stroke:#A80036;stroke-width:1.5;"/></g><!--MD5=[270b12f543486f7dbd6f8f52bf1d5549]
link actor1 to actor2--><g id="link_actor1_actor2"><path d="M441,88.07 C441,106.75 441,128.8 441,147.53 " fill="none" id="actor1-actor2" style="stroke:#A80036;stroke-width:1.0;"/><path d="M433.9289,124.8523 A10,10 0 0 0 448.0711 124.8523" fill="none" style="stroke:#A80036;stroke-width:1.5;"/><ellipse cx="441" cy="117.7813" fill="#FFFFFF" rx="6" ry="6" style="stroke:#A80036;stroke-width:1.5;"/></g><!--MD5=[ad8e7535f0cc2e02d36f446f28b509f6]
link comp1 to comp2--><g id="link_comp1_comp2"><path d="M592.7259,80.1425 C592.7259,80.1425 566.07,131.3 554.93,152.68 " fill="none" id="comp1-comp2" style="stroke:#A80036;stroke-width:1.0;"/><ellipse cx="551.6161" cy="159.035" fill="#FFFFFF" rx="8" ry="8" style="stroke:#A80036;stroke-width:1.0;"/><line style="stroke:#A80036;stroke-width:1.0;" x1="555.3122" x2="547.92" y1="151.94" y2="166.13"/><line style="stroke:#A80036;stroke-width:1.0;" x1="558.7111" x2="544.5211" y1="162.7311" y2="155.3389"/><polygon fill="#A80036" points="598.27,69.5,591.9504,72.9732,592.7259,80.1425,599.0454,76.6693,598.27,69.5" style="stroke:#A80036;stroke-width:1.0;"/><path d="M568.4671,111.3972 A10,10 0 0 0 581.0088 117.9321" fill="none" style="stroke:#A80036;stroke-width:1.5;"/><ellipse cx="578.0054" cy="108.3937" fill="#FFFFFF" rx="6" ry="6" style="stroke:#A80036;stroke-width:1.5;"/></g><!--MD5=[db9dc8064d9f1a2e3eb476d9045e9b70]
link comp3 to comp4--><g id="link_comp3_comp4"><path d="M771,77.7 C771,101.48 771,134.28 771,158.11 " fill="none" id="comp3-comp4" style="stroke:#A80036;stroke-width:1.0;"/><polygon fill="#A80036" points="771,166.13,774,158.13,768,158.13,771,166.13" style="stroke:#A80036;stroke-width:1.0;"/><polygon fill="#A80036" points="771,69.5,767,78.5,771,74.5,775,78.5,771,69.5" style="stroke:#A80036;stroke-width:1.0;"/><line style="stroke:#A80036;stroke-width:1.0;" x1="771" x2="771" y1="74.5" y2="77.5"/></g><!--MD5=[a62a97833fc6a6bd4687cb03e039a273]
link b1 to c1--><g id="link_b1_c1"><path d="M871,70.77 C871,96.98 871,138.91 871,165.15 " fill="none" id="b1-c1" style="stroke:#A80036;stroke-width:1.0;"/><ellipse cx="871" cy="117.9488" fill="#FFFFFF" rx="10" ry="10" style="stroke:#FFFFFF;stroke-width:1.0;"/><path d="M863.9289,125.0198 A10,10 0 0 0 878.0711 125.0198" fill="none" style="stroke:#A80036;stroke-width:1.5;"/><path d="M878.0711,110.8777 A10,10 0 0 0 863.9289 110.8777" fill="none" style="stroke:#A80036;stroke-width:1.5;"/><ellipse cx="871" cy="117.9488" fill="#FFFFFF" rx="6" ry="6" style="stroke:#A80036;stroke-width:1.5;"/></g><!--MD5=[440c5b3fc61d344f71f784a48e48c82b]
link comp1 to interf1--><g id="link_comp1_interf1"><path d="M616.66,79.61 C622.43,107.88 630.57,147.74 635.27,170.73 " fill="none" id="comp1-interf1" style="stroke:#A80036;stroke-width:1.0;stroke-dasharray:1.0,3.0;"/><path d="M644.9909,176.0829 A9,9 0 0 0 628.4181 179.4651" fill="none" style="stroke:#A80036;stroke-width:1.5;"/><rect fill="#FFFFFF" height="10" style="stroke:#A80036;stroke-width:1.5;" width="10" x="609.6" y="64.5"/></g><!--MD5=[fb795603f02136d249da094f0f1756d4]
link mode1actor to fooa1--><g id="link_mode1actor_fooa1"><path d="M967,88.07 C967,106.75 967,128.8 967,147.53 " fill="none" id="mode1actor-fooa1" style="stroke:#A80036;stroke-width:1.0;"/><path d="M959.9289,124.8523 A10,10 0 0 0 974.0711 124.8523" fill="none" style="stroke:#A80036;stroke-width:1.5;"/><ellipse cx="967" cy="117.7813" fill="#FFFFFF" rx="6" ry="6" style="stroke:#A80036;stroke-width:1.5;"/></g><!--MD5=[275f7b022fa871eb4eec864a63d0a75a]
link mode1actorl to foo1l--><g id="link_mode1actorl_foo1l"><path d="M255.81,46 C267.44,46 279.08,46 290.71,46 " fill="none" id="mode1actorl-foo1l" style="stroke:#A80036;stroke-width:1.0;"/><path d="M280.3311,53.0711 A10,10 0 0 0 280.3311 38.9289" fill="none" style="stroke:#A80036;stroke-width:1.5;"/><ellipse cx="273.26" cy="46" fill="#FFFFFF" rx="6" ry="6" style="stroke:#A80036;stroke-width:1.5;"/></g><!--MD5=[d855b6ef9c5db24abd1a20a6a80f606f]
link component1 to componentC--><g id="link_component1_componentC"><path d="M1107.93,74.32 C1118.84,99.32 1134.92,136.14 1145.89,161.27 " fill="none" id="component1-componentC" style="stroke:#A80036;stroke-width:1.0;"/><ellipse cx="1148.02" cy="166.13" fill="#FFFFFF" rx="6" ry="6" style="stroke:#A80036;stroke-width:1.5;"/><path d="M1151.6746,156.8217 A10,10 0 0 0 1138.7117 162.4754" fill="#FFFFFF" style="stroke:#A80036;stroke-width:1.5;"/><ellipse cx="1105.82" cy="69.5" fill="#FFFFFF" rx="6" ry="6" style="stroke:#A80036;stroke-width:1.5;"/><path d="M1102.1654,78.8083 A10,10 0 0 0 1115.1283 73.1546" fill="#FFFFFF" style="stroke:#A80036;stroke-width:1.5;"/><path d="M1130.5384,108.4365 A10,10 0 0 0 1117.5778 114.0953" fill="none" style="stroke:#A80036;stroke-width:1.5;"/><ellipse cx="1126.8875" cy="117.7462" fill="#FFFFFF" rx="6" ry="6" style="stroke:#A80036;stroke-width:1.5;"/></g><!--MD5=[a2a4955f31a57c18ce3edf8e1a928f15]
link component3 to componentC--><g id="link_component3_componentC"><path d="M1224.95,63.9 C1212.62,86.95 1190.29,128.67 1174.83,157.56 " fill="none" id="component3-componentC" style="stroke:#A80036;stroke-width:1.0;"/><ellipse cx="1170.07" cy="166.44" fill="#FFFFFF" rx="6" ry="6" style="stroke:#A80036;stroke-width:1.5;"/><path d="M1179.6382,163.5332 A10,10 0 0 0 1167.1632 156.8718" fill="#FFFFFF" style="stroke:#A80036;stroke-width:1.5;"/><path d="M1220.7907,53.7657 A9,9 0 0 0 1235.7058 61.743" fill="none" style="stroke:#A80036;stroke-width:1.5;"/><text fill="#000000" font-family="sans-serif" font-size="13" lengthAdjust="spacing" textLength="18" x="1152.9334" y="155.8169">foo</text><ellipse cx="1201.0637" cy="108.54" fill="#FFFFFF" rx="6" ry="6" style="stroke:#A80036;stroke-width:1.5;"/></g><!--MD5=[620253659b4ea2fec1c8633d1736a48f]
link aze1 to aze2--><g id="link_aze1_aze2"><path d="M1349,77.7 C1349,101.48 1349,134.28 1349,158.11 " fill="none" id="aze1-aze2" style="stroke:#A80036;stroke-width:1.0;"/><polygon fill="#A80036" points="1349,166.13,1352,158.13,1346,158.13,1349,166.13" style="stroke:#A80036;stroke-width:1.0;"/><rect fill="#FFFFFF" height="10" style="stroke:#A80036;stroke-width:1.5;" width="10" x="1344" y="64.5"/></g><!--MD5=[7fdf5ac21da5db633903d6462f6f1878]
@startuml
skin rose

actor foo1
actor foo2
foo1 <-0-> foo2
foo1 <-(0)-> foo2
 
(ac1) -le(0)-> left1
ac1 -ri(0)-> right1
ac1 .up(0).> up1
ac1 ~up(0)~> up2
ac1 -do(0)-> down1
ac1 -do(0)-> down2
 
actor1 -0)- actor2
 
component comp1
component comp2
comp1 *-0)-+ comp2
[comp3] <- ->> [comp4]

boundary b1
control c1
b1 -(0)- c1

component comp1
interface interf1
comp1 #~~( interf1

:mode1actor: -0)- fooa1
:mode1actorl: -ri0)- foo1l

[component1] 0)-(0-(0 [componentC]
() component3 )-0-(0 "foo" [componentC]

[aze1] #- ->> [aze2]
@enduml

PlantUML version 1.2022.3(Tue Mar 29 16:10:57 GMT 2022)
(GPL source distribution)
Java Runtime: OpenJDK Runtime Environment
JVM: OpenJDK 64-Bit Server VM
Default Encoding: UTF-8
Language: en
Country: US
--></g></svg>