<?xml version="1.0" encoding="UTF-8" standalone="no"?><svg xmlns="http://www.w3.org/2000/svg" xmlns:xlink="http://www.w3.org/1999/xlink" contentStyleType="text/css" height="418px" preserveAspectRatio="none" style="width:655px;height:418px;background:#FFFFFF;" version="1.1" viewBox="0 0 655 418" width="655px" zoomAndPan="magnify"><defs><filter height="300%" id="fhc2foddlcthm" width="300%" x="-1" y="-1"><feGaussianBlur result="blurOut" stdDeviation="2.0"/><feColorMatrix in="blurOut" result="blurOut2" type="matrix" values="0 0 0 0 0 0 0 0 0 0 0 0 0 0 0 0 0 0 .4 0"/><feOffset dx="4.0" dy="4.0" in="blurOut2" result="blurOut3"/><feBlend in="SourceGraphic" in2="blurOut3" mode="normal"/></filter></defs><g><!--MD5=[b4fa10df80476353258f72a232547d63]
class AbstractList--><g id="elem_AbstractList"><rect codeLine="3" fill="#FEFECE" filter="url(#fhc2foddlcthm)" height="48" id="AbstractList" style="stroke:#A80036;stroke-width:1.0;" width="106" x="188" y="190"/><ellipse cx="203" cy="206" fill="#A9DCDF" rx="11" ry="11" style="stroke:#A80036;stroke-width:1.0;"/><path d="M203.9531,209.6563 Q203.9531,209.1563 204.2344,208.9844 Q204.5313,208.7969 205.0781,208.7969 L205.4688,208.7969 L205.0781,207.8125 L201.0313,207.8125 L200.6406,208.7969 L201.0313,208.7969 Q202.1406,208.7969 202.1406,209.6563 Q202.1406,210.5 201.0313,210.5 L198.7656,210.5 Q197.6406,210.5 197.6406,209.6563 Q197.6406,209.1406 197.9375,208.9688 Q198.2344,208.7969 198.7813,208.7969 L201.4219,202.2813 L200.3438,202.2813 Q199.2031,202.2813 199.2031,201.4375 Q199.2031,200.9219 199.5,200.7656 Q199.7969,200.5938 200.3438,200.5938 L204.0156,200.5938 L207.4063,208.7969 Q208.5625,208.7969 208.5625,209.6563 Q208.5625,210.5 207.4375,210.5 L205.0781,210.5 Q203.9531,210.5 203.9531,209.6563 Z M204.375,206.1094 L203.0469,202.8438 L201.7031,206.1094 L204.375,206.1094 Z " fill="#000000"/><text fill="#000000" font-family="sans-serif" font-size="14" font-style="italic" lengthAdjust="spacing" textLength="74" x="217" y="211.6">AbstractList</text><line style="stroke:#A80036;stroke-width:1.0;" x1="189" x2="293" y1="222" y2="222"/><line style="stroke:#A80036;stroke-width:1.0;" x1="189" x2="293" y1="230" y2="230"/></g><!--MD5=[8e34b16d8d8f96f4a11290cd523ed859]
class AbstractCollection--><g id="elem_AbstractCollection"><rect codeLine="4" fill="#FEFECE" filter="url(#fhc2foddlcthm)" height="48" id="AbstractCollection" style="stroke:#A80036;stroke-width:1.0;" width="146" x="7" y="190"/><ellipse cx="22" cy="206" fill="#A9DCDF" rx="11" ry="11" style="stroke:#A80036;stroke-width:1.0;"/><path d="M22.9531,209.6563 Q22.9531,209.1563 23.2344,208.9844 Q23.5313,208.7969 24.0781,208.7969 L24.4688,208.7969 L24.0781,207.8125 L20.0313,207.8125 L19.6406,208.7969 L20.0313,208.7969 Q21.1406,208.7969 21.1406,209.6563 Q21.1406,210.5 20.0313,210.5 L17.7656,210.5 Q16.6406,210.5 16.6406,209.6563 Q16.6406,209.1406 16.9375,208.9688 Q17.2344,208.7969 17.7813,208.7969 L20.4219,202.2813 L19.3438,202.2813 Q18.2031,202.2813 18.2031,201.4375 Q18.2031,200.9219 18.5,200.7656 Q18.7969,200.5938 19.3438,200.5938 L23.0156,200.5938 L26.4063,208.7969 Q27.5625,208.7969 27.5625,209.6563 Q27.5625,210.5 26.4375,210.5 L24.0781,210.5 Q22.9531,210.5 22.9531,209.6563 Z M23.375,206.1094 L22.0469,202.8438 L20.7031,206.1094 L23.375,206.1094 Z " fill="#000000"/><text fill="#000000" font-family="sans-serif" font-size="14" font-style="italic" lengthAdjust="spacing" textLength="114" x="36" y="211.6">AbstractCollection</text><line style="stroke:#A80036;stroke-width:1.0;" x1="8" x2="152" y1="222" y2="222"/><line style="stroke:#A80036;stroke-width:1.0;" x1="8" x2="152" y1="230" y2="230"/></g><!--MD5=[3d4177ac58b4411586d067f34e84928f]
class List--><g id="elem_List"><rect codeLine="5" fill="#FEFECE" filter="url(#fhc2foddlcthm)" height="48" id="List" style="stroke:#A80036;stroke-width:1.0;" width="54" x="188" y="32"/><ellipse cx="203" cy="48" fill="#B4A7E5" rx="11" ry="11" style="stroke:#A80036;stroke-width:1.0;"/><path d="M205.6719,51.2969 Q206.2188,51.2969 206.5,51.4844 Q206.7813,51.6563 206.7813,52.1563 Q206.7813,53 205.6719,53 L200.5313,53 Q199.4063,53 199.4063,52.1563 Q199.4063,51.6563 199.6875,51.4844 Q199.9844,51.2969 200.5313,51.2969 L202.25,51.2969 L202.25,44.7813 L200.5313,44.7813 Q199.4063,44.7813 199.4063,43.9375 Q199.4063,43.4531 199.6875,43.2813 Q199.9844,43.0938 200.5313,43.0938 L205.6719,43.0938 Q206.2188,43.0938 206.5,43.2813 Q206.7813,43.4531 206.7813,43.9375 Q206.7813,44.7813 205.6719,44.7813 L203.9531,44.7813 L203.9531,51.2969 L205.6719,51.2969 Z " fill="#000000"/><text fill="#000000" font-family="sans-serif" font-size="14" font-style="italic" lengthAdjust="spacing" textLength="22" x="217" y="53.6">List</text><line style="stroke:#A80036;stroke-width:1.0;" x1="189" x2="241" y1="64" y2="64"/><line style="stroke:#A80036;stroke-width:1.0;" x1="189" x2="241" y1="72" y2="72"/></g><!--MD5=[c160724f8e3bb89ca8141a12554ac2e3]
class Collection--><g id="elem_Collection"><rect codeLine="6" fill="#FEFECE" filter="url(#fhc2foddlcthm)" height="48" id="Collection" style="stroke:#A80036;stroke-width:1.0;" width="94" x="46" y="32"/><ellipse cx="61" cy="48" fill="#B4A7E5" rx="11" ry="11" style="stroke:#A80036;stroke-width:1.0;"/><path d="M63.6719,51.2969 Q64.2188,51.2969 64.5,51.4844 Q64.7813,51.6563 64.7813,52.1563 Q64.7813,53 63.6719,53 L58.5313,53 Q57.4063,53 57.4063,52.1563 Q57.4063,51.6563 57.6875,51.4844 Q57.9844,51.2969 58.5313,51.2969 L60.25,51.2969 L60.25,44.7813 L58.5313,44.7813 Q57.4063,44.7813 57.4063,43.9375 Q57.4063,43.4531 57.6875,43.2813 Q57.9844,43.0938 58.5313,43.0938 L63.6719,43.0938 Q64.2188,43.0938 64.5,43.2813 Q64.7813,43.4531 64.7813,43.9375 Q64.7813,44.7813 63.6719,44.7813 L61.9531,44.7813 L61.9531,51.2969 L63.6719,51.2969 Z " fill="#000000"/><text fill="#000000" font-family="sans-serif" font-size="14" font-style="italic" lengthAdjust="spacing" textLength="62" x="75" y="53.6">Collection</text><line style="stroke:#A80036;stroke-width:1.0;" x1="47" x2="139" y1="64" y2="64"/><line style="stroke:#A80036;stroke-width:1.0;" x1="47" x2="139" y1="72" y2="72"/></g><!--MD5=[ab8871ed637f40707b866ba6597734bc]
class ArrayList--><g id="elem_ArrayList"><rect codeLine="15" fill="#FEFECE" filter="url(#fhc2foddlcthm)" height="81.5999" id="ArrayList" style="stroke:#A80036;stroke-width:1.0;" width="141" x="170.5" y="323"/><ellipse cx="209.35" cy="339" fill="#ADD1B2" rx="11" ry="11" style="stroke:#A80036;stroke-width:1.0;"/><path d="M208.7094,342.7813 Q209.5063,342.7813 210.0688,342.5938 Q210.6469,342.3906 210.8813,342.1719 Q211.1313,341.9375 211.3656,341.75 Q211.6156,341.5469 211.8344,341.5469 Q212.1781,341.5469 212.4281,341.8125 Q212.6938,342.0625 212.6938,342.3906 Q212.6938,343.125 211.5219,343.8125 Q210.3656,344.4844 208.6625,344.4844 Q206.5063,344.4844 205.0844,343.2188 Q203.6625,341.9531 203.6625,340.0156 L203.6625,338.8906 Q203.6625,336.8594 204.9906,335.4844 Q206.3188,334.0938 208.2875,334.0938 Q209.475,334.0938 210.6938,334.6719 L210.8656,334.75 Q211.1625,334.3438 211.5844,334.3438 Q212.0688,334.3438 212.2406,334.6406 Q212.4281,334.9219 212.4281,335.4688 L212.4281,336.8906 Q212.4281,338.0156 211.5844,338.0156 Q211.2719,338.0156 211.0688,337.8438 Q210.8813,337.6719 210.8344,337.5313 Q210.8031,337.375 210.7563,337.1094 Q210.6469,336.5938 210.1313,336.2813 Q209.6156,335.9688 209.1625,335.8906 Q208.725,335.7969 208.35,335.7969 Q207.0688,335.7969 206.2094,336.6719 Q205.3656,337.5469 205.3656,338.8906 L205.3656,339.9844 Q205.3656,341.2656 206.2719,342.0313 Q207.1781,342.7813 208.7094,342.7813 Z " fill="#000000"/><text fill="#000000" font-family="sans-serif" font-size="14" lengthAdjust="spacing" textLength="56" x="228.65" y="344.6">ArrayList</text><line style="stroke:#A80036;stroke-width:1.0;" x1="171.5" x2="310.5" y1="355" y2="355"/><text fill="#000000" font-family="sans-serif" font-size="14" lengthAdjust="spacing" textLength="129" x="176.5" y="372.9999">Object[] elementData</text><line style="stroke:#A80036;stroke-width:1.0;" x1="171.5" x2="310.5" y1="379.7999" y2="379.7999"/><text fill="#000000" font-family="sans-serif" font-size="14" lengthAdjust="spacing" textLength="34" x="176.5" y="397.7999">size()</text></g><!--MD5=[15b68e006199004da79ea2a4d117d8e9]
class TimeUnit--><g id="elem_TimeUnit"><rect codeLine="20" fill="#FEFECE" filter="url(#fhc2foddlcthm)" height="98.3998" id="TimeUnit" style="stroke:#A80036;stroke-width:1.0;" width="87" x="368.5" y="7"/><ellipse cx="383.5" cy="23" fill="#EB937F" rx="11" ry="11" style="stroke:#A80036;stroke-width:1.0;"/><path d="M385.6563,25.4219 Q385.6563,24.2813 386.5,24.2813 Q387.3438,24.2813 387.3438,25.4219 L387.3438,28 L379.3438,28 Q378.2188,28 378.2188,27.1563 Q378.2188,26.2969 379.3438,26.2969 L379.5938,26.2969 L379.5938,19.7813 L379.3438,19.7813 Q378.2188,19.7813 378.2188,18.9375 Q378.2188,18.4531 378.5,18.2813 Q378.7969,18.0938 379.3438,18.0938 L386.9688,18.0938 L386.9688,20.6406 Q386.9688,21.7813 386.125,21.7813 Q385.2813,21.7813 385.2813,20.6406 L385.2813,19.7813 L381.2969,19.7813 L381.2969,22.1875 L382.75,22.1875 L382.75,22.0625 Q382.75,20.9219 383.5781,20.9219 Q384.4219,20.9219 384.4219,22.0625 L384.4219,23.9844 Q384.4219,25.1094 383.5938,25.1094 Q382.75,25.1094 382.75,23.9844 L382.75,23.875 L381.2969,23.875 L381.2969,26.2969 L385.6563,26.2969 L385.6563,25.4219 Z " fill="#000000"/><text fill="#000000" font-family="sans-serif" font-size="14" lengthAdjust="spacing" textLength="55" x="397.5" y="28.6">TimeUnit</text><line style="stroke:#A80036;stroke-width:1.0;" x1="369.5" x2="454.5" y1="39" y2="39"/><text fill="#000000" font-family="sans-serif" font-size="14" lengthAdjust="spacing" textLength="37" x="374.5" y="56.9999">DAYS</text><text fill="#000000" font-family="sans-serif" font-size="14" lengthAdjust="spacing" textLength="50" x="374.5" y="73.7999">HOURS</text><text fill="#000000" font-family="sans-serif" font-size="14" lengthAdjust="spacing" textLength="63" x="374.5" y="90.5998">MINUTES</text><line style="stroke:#A80036;stroke-width:1.0;" x1="369.5" x2="454.5" y1="97.3998" y2="97.3998"/></g><!--MD5=[0c8287f799745f7b534bf75518604c1e]
class SuppressWarnings--><g id="elem_SuppressWarnings"><rect codeLine="26" fill="#FEFECE" filter="url(#fhc2foddlcthm)" height="48" id="SuppressWarnings" style="stroke:#A80036;stroke-width:1.0;" width="151" x="490.5" y="32"/><ellipse cx="505.5" cy="48" fill="#E3664A" rx="11" ry="11" style="stroke:#A80036;stroke-width:1.0;"/><path d="M504.6406,54.5781 Q503.75,54.5781 503.0469,54.2188 Q502.3594,53.875 501.9531,53.3281 Q501.5469,52.7813 501.2656,52.0625 Q501,51.3438 500.8906,50.6875 Q500.7969,50.0313 500.7969,49.375 L500.7969,46.5156 Q500.7969,44.3125 501.875,42.8906 Q502.9531,41.4531 504.6094,41.4531 Q506,41.4531 506.875,42.375 Q507.7656,43.2969 507.7656,44.7031 L507.7656,49.4844 Q508.1563,49.6563 508.1563,50.0781 Q508.1563,50.7813 507.2188,50.7813 L506.4219,50.7813 L506.4219,50.7188 Q506.0313,50.7813 505.8594,50.7813 Q504.7656,50.7813 503.9844,50 Q503.2031,49.2188 503.2031,48.1563 Q503.2031,46.9688 504.0938,46.1719 Q504.9844,45.3594 506.4219,45.25 L506.4219,44.7031 Q506.4219,43.8594 505.9219,43.3281 Q505.4219,42.7969 504.6406,42.7969 Q503.5625,42.7969 502.8438,43.8906 Q502.1406,44.9844 502.1406,46.6094 L502.1406,49.2656 Q502.1406,49.9063 502.25,50.5469 Q502.375,51.1875 502.6406,51.8281 Q502.9063,52.4688 503.4219,52.8594 Q503.9531,53.2656 504.6875,53.2656 Q505.2656,53.2656 505.6719,53.125 Q506.0938,53 506.2656,52.8438 Q506.4375,52.6875 506.6094,52.5469 Q506.7969,52.4219 506.9688,52.4219 Q507.25,52.4219 507.4375,52.625 Q507.6406,52.8281 507.6406,53.125 Q507.6406,53.7188 506.75,54.1406 Q505.8594,54.5781 504.6406,54.5781 Z M506.4219,49.3594 L506.4219,46.625 Q505.5625,46.7188 505.0469,47.1406 Q504.5469,47.5469 504.5469,48.1719 Q504.5469,48.7031 504.9531,49.0625 Q505.3594,49.4063 505.9844,49.4063 Q506.1875,49.4063 506.4219,49.3594 Z " fill="#000000"/><text fill="#000000" font-family="sans-serif" font-size="14" lengthAdjust="spacing" textLength="119" x="519.5" y="53.6">SuppressWarnings</text><line style="stroke:#A80036;stroke-width:1.0;" x1="491.5" x2="640.5" y1="64" y2="64"/><line style="stroke:#A80036;stroke-width:1.0;" x1="491.5" x2="640.5" y1="72" y2="72"/></g><!--MD5=[faebc81c07309c527f2fda51bf6b78ab]
class Annotation--><g id="elem_Annotation"><rect codeLine="28" fill="#FEFECE" filter="url(#fhc2foddlcthm)" height="98.3998" id="Annotation" style="stroke:#A80036;stroke-width:1.0;" width="166" x="329" y="165"/><ellipse cx="374.75" cy="181" fill="#E3664A" rx="11" ry="11" style="stroke:#A80036;stroke-width:1.0;"/><path d="M373.8906,187.5781 Q373,187.5781 372.2969,187.2188 Q371.6094,186.875 371.2031,186.3281 Q370.7969,185.7813 370.5156,185.0625 Q370.25,184.3438 370.1406,183.6875 Q370.0469,183.0313 370.0469,182.375 L370.0469,179.5156 Q370.0469,177.3125 371.125,175.8906 Q372.2031,174.4531 373.8594,174.4531 Q375.25,174.4531 376.125,175.375 Q377.0156,176.2969 377.0156,177.7031 L377.0156,182.4844 Q377.4063,182.6563 377.4063,183.0781 Q377.4063,183.7813 376.4688,183.7813 L375.6719,183.7813 L375.6719,183.7188 Q375.2813,183.7813 375.1094,183.7813 Q374.0156,183.7813 373.2344,183 Q372.4531,182.2188 372.4531,181.1563 Q372.4531,179.9688 373.3438,179.1719 Q374.2344,178.3594 375.6719,178.25 L375.6719,177.7031 Q375.6719,176.8594 375.1719,176.3281 Q374.6719,175.7969 373.8906,175.7969 Q372.8125,175.7969 372.0938,176.8906 Q371.3906,177.9844 371.3906,179.6094 L371.3906,182.2656 Q371.3906,182.9063 371.5,183.5469 Q371.625,184.1875 371.8906,184.8281 Q372.1563,185.4688 372.6719,185.8594 Q373.2031,186.2656 373.9375,186.2656 Q374.5156,186.2656 374.9219,186.125 Q375.3438,186 375.5156,185.8438 Q375.6875,185.6875 375.8594,185.5469 Q376.0469,185.4219 376.2188,185.4219 Q376.5,185.4219 376.6875,185.625 Q376.8906,185.8281 376.8906,186.125 Q376.8906,186.7188 376,187.1406 Q375.1094,187.5781 373.8906,187.5781 Z M375.6719,182.3594 L375.6719,179.625 Q374.8125,179.7188 374.2969,180.1406 Q373.7969,180.5469 373.7969,181.1719 Q373.7969,181.7031 374.2031,182.0625 Q374.6094,182.4063 375.2344,182.4063 Q375.4375,182.4063 375.6719,182.3594 Z " fill="#000000"/><text fill="#000000" font-family="sans-serif" font-size="14" lengthAdjust="spacing" textLength="66" x="395.25" y="186.6">Annotation</text><line style="stroke:#A80036;stroke-width:1.0;" x1="330" x2="494" y1="197" y2="197"/><text fill="#000000" font-family="sans-serif" font-size="14" lengthAdjust="spacing" textLength="154" x="335" y="214.9999">annotation with members</text><line style="stroke:#A80036;stroke-width:1.0;" x1="330" x2="494" y1="221.7999" y2="221.7999"/><text fill="#000000" font-family="sans-serif" font-size="14" lengthAdjust="spacing" textLength="69" x="335" y="239.7999">String foo()</text><text fill="#000000" font-family="sans-serif" font-size="14" lengthAdjust="spacing" textLength="72" x="335" y="256.5998">String bar()</text></g><!--MD5=[00308d07b6a5721fb0cf5861877e6652]
reverse link List to AbstractList--><g id="link_List_AbstractList"><path codeLine="8" d="M222.14,99.85 C226.99,128.92 233.21,166.23 237.15,189.89 " fill="none" id="List-backto-AbstractList" style="stroke:#A80036;stroke-width:1.0;"/><polygon fill="none" points="215.22,100.9,218.84,80.02,229.03,98.6,215.22,100.9" style="stroke:#A80036;stroke-width:1.0;"/></g><!--MD5=[1822909749df1453bdd84de7a60a3406]
reverse link Collection to AbstractCollection--><g id="link_Collection_AbstractCollection"><path codeLine="9" d="M89.39,100.28 C86.98,129.29 83.89,166.35 81.93,189.89 " fill="none" id="Collection-backto-AbstractCollection" style="stroke:#A80036;stroke-width:1.0;"/><polygon fill="none" points="82.44,99.37,91.08,80.02,96.4,100.53,82.44,99.37" style="stroke:#A80036;stroke-width:1.0;"/></g><!--MD5=[0159284274f96a472eb2618ad803aaca]
reverse link Collection to List--><g id="link_Collection_List"><path codeLine="11" d="M160.28,56 C169.46,56 178.64,56 187.82,56 " fill="none" id="Collection-backto-List" style="stroke:#A80036;stroke-width:1.0;"/><polygon fill="none" points="160.18,63,140.18,56,160.18,49,160.18,63" style="stroke:#A80036;stroke-width:1.0;"/></g><!--MD5=[7a3a52e8f65ef1a8d8d29530ea5cd870]
reverse link AbstractCollection to AbstractList--><g id="link_AbstractCollection_AbstractList"><path codeLine="12" d="M173.28,214 C178.15,214 183.01,214 187.88,214 " fill="none" id="AbstractCollection-backto-AbstractList" style="stroke:#A80036;stroke-width:1.0;"/><polygon fill="none" points="173.27,221,153.27,214,173.27,207,173.27,221" style="stroke:#A80036;stroke-width:1.0;"/></g><!--MD5=[40e4bb1af59cca28d4643aaff05088cc]
reverse link AbstractList to ArrayList--><g id="link_AbstractList_ArrayList"><path codeLine="13" d="M241,258.36 C241,278.71 241,302.81 241,322.75 " fill="none" id="AbstractList-backto-ArrayList" style="stroke:#A80036;stroke-width:1.0;"/><polygon fill="none" points="234,258.13,241,238.12,248,258.12,234,258.13" style="stroke:#A80036;stroke-width:1.0;"/></g><!--MD5=[15ba339f95e55e255aeb8f9acd97a0d0]
link TimeUnit to SuppressWarnings--></g></svg>